HIERARCHY
ROOT Hips
{
	OFFSET 0.00000 0.00000 0.00000
	CHANNELS 6 Xposition Yposition Zposition Zrotation Yrotation Xrotation 
	JOINT RightUpLegDummy
	{
		OFFSET 0 0 0
		CHANNELS 3 Zrotation Yrotation Xrotation
		JOINT RightUpLeg
		{
			OFFSET -3.52197 -3.41223 0.04002
			CHANNELS 3 Zrotation Yrotation Xrotation
			JOINT RightLeg
			{
				OFFSET 0.00006 -17.42390 1.60435
				CHANNELS 3 Zrotation Yrotation Xrotation
				JOINT RightFoot
				{
					OFFSET 0.06153 -16.50078 -1.63901
					CHANNELS 3 Zrotation Yrotation Xrotation
					JOINT RightToes
					{
						OFFSET 0.00298 -1.73825 3.34613
						CHANNELS 3 Zrotation Yrotation Xrotation
						End Site
						{
							OFFSET 0.00480 -0.05416 3.85043
						}
					}
				}
			}
		}
	}
	JOINT SpineDummy
	{
		OFFSET 0 0 0
		CHANNELS 3 Zrotation Yrotation Xrotation
		JOINT Spine
		{
			OFFSET 0.00000 4.68130 0.00000
			CHANNELS 3 Zrotation Yrotation Xrotation
			JOINT Spine1
			{
				OFFSET -0.00000 10.10138 0.05002
				CHANNELS 3 Zrotation Yrotation Xrotation
				JOINT HEadDummy
				{
					OFFSET 0 0 0
					CHANNELS 3 Zrotation Yrotation Xrotation
					JOINT Head
					{
						OFFSET -0.00000 3.43865 0.00438
						CHANNELS 3 Zrotation Yrotation Xrotation
						End Site
						{
							OFFSET -0.11417 5.02924 0.98962
						}
					}
				}
				JOINT LeftShoulder1Dummy
				{
					OFFSET 0 0 0
					CHANNELS 3 Zrotation Yrotation Xrotation
					JOINT LeftShoulder1
					{
						OFFSET 3.53937 -0.14262 -0.08662
						CHANNELS 3 Zrotation Yrotation Xrotation
						JOINT LeftArm
						{
							OFFSET 4.04833 -0.00133 0.12681
							CHANNELS 3 Zrotation Yrotation Xrotation
							JOINT LeftForeArm
							{
								OFFSET 10.33880 -0.01036 -0.55515
								CHANNELS 3 Zrotation Yrotation Xrotation
								JOINT LeftHand
								{
									OFFSET 8.69677 0.07543 0.40060
									CHANNELS 3 Zrotation Yrotation Xrotation
									End Site
									{
										OFFSET 5.28377 -0.21905 0.59205
									}
								}
							}
						}
					}
				}
				JOINT RightShoulderDummy
				{
					OFFSET 0 0 0
					CHANNELS 3 Zrotation Yrotation Xrotation
					JOINT RightShoulder
					{
						OFFSET -3.53937 -0.14262 -0.08660
						CHANNELS 3 Zrotation Yrotation Xrotation
						JOINT RightArm
						{
							OFFSET -4.04833 -0.00133 0.12683
							CHANNELS 3 Zrotation Yrotation Xrotation
							JOINT RightForeArm
							{
								OFFSET -10.37987 -0.01039 -0.55511
								CHANNELS 3 Zrotation Yrotation Xrotation
								JOINT RightHand
								{
									OFFSET -8.67398 0.07538 0.40058
									CHANNELS 3 Zrotation Yrotation Xrotation
									End Site
									{
										OFFSET -5.24810 -0.21916 0.59204
									}
								}
							}
						}
					}
				}
			}
		}
	}
	JOINT LeftUpLegDummy
	{
		OFFSET 0 0 0
		CHANNELS 3 Zrotation Yrotation Xrotation
		JOINT LeftUpLeg
		{
			OFFSET 3.52197 -3.41223 0.04002
			CHANNELS 3 Zrotation Yrotation Xrotation
			JOINT LeftLeg
			{
				OFFSET -0.00012 -17.42399 1.60337
				CHANNELS 3 Zrotation Yrotation Xrotation
				JOINT LeftFoot
				{
					OFFSET -0.09972 -16.50070 -1.63802
					CHANNELS 3 Zrotation Yrotation Xrotation
					JOINT LeftToes
					{
						OFFSET -0.01575 -1.73823 3.34611
						CHANNELS 3 Zrotation Yrotation Xrotation
						End Site
						{
							OFFSET 0.03150 -0.01868 3.85031
						}
					}
				}
			}
		}
	}
}
MOTION
Frames: 9
Frame Time: 0.033333
8.3839 38.2608 73.0330 -174.6590 53.7354 174.5450 0.0000 0.0000 0.0000 1.2052 -3.3604 -8.7304 -1.5296 -5.1365 23.0468 1.2286 -0.0912 -4.5079 0.0000 -0.0000 -0.0000 0.0000 0.0000 0.0000 9.6621 3.3235 13.5926 -3.0506 4.5348 -2.4607 -0.0000 0.0000 -0.0000 -3.0801 25.6695 -5.5445 -0.0000 0.0000 -0.0000 -33.3112 -2.4182 2.3296 -41.8123 -9.9791 -25.9921 -6.3823 5.1891 47.4285 17.1722 -0.2176 -0.8278 -0.0000 0.0000 -0.0000 34.9447 5.2358 3.5804 37.5986 2.3411 -14.5015 10.9597 3.3985 29.4784 -14.7662 2.2034 -0.9501 0.0000 0.0000 0.0000 10.4090 -8.9420 -9.0076 3.1882 0.9141 63.7487 3.8597 -0.4831 2.5327 0.0000 0.0000 -0.0000
9.7103 38.3968 73.0735 -175.4860 56.3782 174.1580 0.0000 0.0000 0.0000 2.1511 -2.7316 -7.2971 -0.7732 -3.8450 22.8910 -0.2807 -0.0105 -6.2541 0.0000 -0.0000 -0.0000 0.0000 0.0000 0.0000 9.4589 4.3217 13.9288 -3.5789 5.6814 -2.8947 -0.0000 0.0000 -0.0000 -3.3478 26.1783 -5.8363 -0.0000 0.0000 -0.0000 -32.9434 -2.2944 2.2594 -41.3737 -6.7555 -25.2679 -6.8905 5.0761 51.1150 17.7282 -1.2502 -1.0057 -0.0000 0.0000 -0.0000 34.2522 5.1456 3.4826 37.5410 3.6934 -13.0145 11.1918 4.9925 28.1848 -13.9614 2.4086 -0.9202 0.0000 0.0000 0.0000 7.7390 -7.5256 -12.4688 2.4506 0.7404 61.7960 4.4301 -0.4335 -0.1312 0.0000 0.0000 -0.0000
11.0288 38.5063 73.1104 -176.2310 58.7576 173.8330 0.0000 0.0000 0.0000 3.0138 -2.4250 -5.6575 0.0591 -2.5129 22.4932 -1.6837 0.0255 -7.6843 0.0000 -0.0000 -0.0000 0.0000 0.0000 0.0000 9.1634 5.1482 13.9381 -3.9328 6.6074 -2.9331 -0.0000 0.0000 -0.0000 -3.9063 26.7253 -6.4677 -0.0000 0.0000 -0.0000 -33.1915 -2.2427 2.2537 -40.6124 -3.6378 -24.0338 -8.1637 5.0899 50.2433 18.1693 -1.6000 -1.0836 -0.0000 0.0000 -0.0000 34.0594 5.1212 3.4560 37.2915 5.3459 -11.3579 11.3209 5.9519 27.3162 -13.0200 2.6234 -0.8787 0.0000 0.0000 0.0000 5.3317 -6.4612 -15.4389 3.3541 1.4299 57.4601 4.5751 -0.3478 -2.3577 0.0000 0.0000 -0.0000
12.3073 38.5854 73.1100 -176.6930 60.7405 173.5730 0.0000 0.0000 0.0000 3.7578 -2.4090 -3.7127 0.9680 -1.1730 22.0030 -2.7479 0.0189 -9.1502 0.0000 -0.0000 -0.0000 0.0000 0.0000 0.0000 9.2303 5.7359 13.8968 -4.4716 7.3638 -2.6722 -0.0000 0.0000 -0.0000 -4.4754 27.1116 -7.1564 -0.0000 0.0000 -0.0000 -33.5434 -2.2261 2.2675 -39.9907 -1.5875 -23.5782 -8.9133 5.1426 48.2059 17.8067 -1.5906 -1.0603 -0.0000 0.0000 -0.0000 34.2864 5.1445 3.4852 37.0588 6.8859 -10.4478 11.3539 6.4001 26.8218 -12.6503 2.7476 -0.8656 0.0000 0.0000 0.0000 3.2258 -6.0178 -17.6350 4.7583 2.8094 51.2086 3.7486 -0.2317 -3.5782 0.0000 0.0000 -0.0000
13.5451 38.6678 73.0822 -176.9840 62.4764 173.2050 0.0000 0.0000 0.0000 4.5110 -2.3555 -1.2610 1.5750 0.0421 21.1091 -3.6804 -0.0102 -10.4623 0.0000 -0.0000 -0.0000 0.0000 0.0000 0.0000 9.4577 6.1931 13.9105 -5.0006 8.0235 -2.1809 -0.0000 0.0000 -0.0000 -4.8664 27.3926 -7.5544 -0.0000 0.0000 -0.0000 -33.5371 -2.2298 2.2686 -40.1641 -0.6205 -24.1228 -8.7505 5.1751 47.1190 17.2281 -1.4869 -1.0100 -0.0000 0.0000 -0.0000 34.4653 5.1639 3.5087 37.3359 8.0583 -9.9769 11.3020 6.7617 26.1925 -12.9388 2.6456 -0.8753 0.0000 0.0000 0.0000 1.3485 -6.1576 -18.7314 4.8809 3.8475 43.5684 3.9315 -0.2612 -3.2343 0.0000 0.0000 -0.0000
14.7563 38.7500 73.0563 -177.1730 63.8247 172.8450 0.0000 0.0000 0.0000 5.3743 -2.1701 1.5018 1.6796 0.7830 19.7121 -4.7675 -0.0418 -11.3395 0.0000 -0.0000 -0.0000 0.0000 0.0000 0.0000 9.4320 6.5564 13.7575 -5.1066 8.4865 -1.5035 -0.0000 0.0000 -0.0000 -4.9336 27.5550 -7.6261 -0.0000 0.0000 -0.0000 -33.3743 -2.2694 2.2748 -40.9271 -0.3263 -24.9383 -8.2882 5.2064 46.1633 16.8194 -1.3043 -0.9602 -0.0000 0.0000 -0.0000 34.5139 5.1748 3.5174 37.9706 8.7739 -9.0612 11.3000 7.2827 24.8225 -13.3487 2.5379 -0.8925 0.0000 0.0000 0.0000 -0.2509 -7.0133 -18.9905 3.5125 3.6091 35.3529 4.6368 -0.3800 -1.7240 0.0000 0.0000 -0.0000
15.9695 38.7765 73.0433 -177.0810 64.7292 173.0110 0.0000 0.0000 0.0000 6.3827 -1.9485 3.9181 1.5226 0.9426 18.3978 -5.6975 -0.0886 -12.2201 0.0000 -0.0000 -0.0000 0.0000 0.0000 0.0000 9.1018 6.8546 13.1433 -4.7949 8.7284 -0.8125 -0.0000 0.0000 -0.0000 -4.2897 26.9933 -7.4318 -0.0000 0.0000 -0.0000 -33.3767 -2.2976 2.2860 -41.6467 -0.3952 -25.2117 -8.2055 5.2483 44.6418 16.4597 -1.1699 -0.9209 -0.0000 0.0000 -0.0000 34.7070 5.2093 3.5484 38.4715 9.0491 -7.6719 11.4537 7.7205 22.9833 -13.1781 2.6594 -0.8935 0.0000 0.0000 0.0000 -1.5575 -7.5534 -19.0774 1.9144 2.4107 27.5785 3.1141 -0.3279 0.7288 0.0000 0.0000 -0.0000
17.2058 38.7410 73.0336 -176.6360 65.5658 174.0010 0.0000 0.0000 0.0000 7.4654 -1.7304 5.6879 1.5029 1.1573 17.4242 -6.0863 -0.1582 -13.3937 0.0000 -0.0000 -0.0000 0.0000 0.0000 0.0000 8.7090 7.2367 11.9306 -4.4475 8.9734 -0.2425 -0.0000 0.0000 -0.0000 -3.6301 25.3578 -6.7914 -0.0000 0.0000 -0.0000 -33.4283 -2.2547 2.2721 -42.1763 -0.6417 -24.8400 -8.5046 5.2751 43.5039 16.0879 -1.3794 -0.9272 -0.0000 0.0000 -0.0000 35.1116 5.2701 3.6093 38.8286 8.8829 -6.6021 11.6773 7.8234 21.7034 -12.2858 2.8294 -0.8480 0.0000 0.0000 0.0000 -3.1018 -5.3033 -19.2270 0.6988 0.6440 20.5700 -0.5660 0.0530 3.7351 0.0000 0.0000 -0.0000
18.4660 38.6817 73.0023 -176.1490 66.5452 175.4960 0.0000 0.0000 0.0000 8.4630 -1.4986 7.0731 1.6413 1.8182 16.4124 -6.5341 -0.2331 -14.4819 0.0000 -0.0000 -0.0000 0.0000 0.0000 0.0000 8.3783 7.7936 10.1000 -4.3174 9.3863 0.3234 -0.0000 0.0000 -0.0000 -2.7778 23.6408 -6.0000 -0.0000 0.0000 -0.0000 -33.3174 -2.1736 2.2338 -42.7098 -0.9825 -24.3878 -8.7323 5.2734 43.4791 15.7897 -1.9364 -0.9817 -0.0000 0.0000 -0.0000 35.5168 5.3299 3.6703 39.3709 8.2330 -6.2270 11.8398 7.6879 21.3836 -11.3033 2.8092 -0.7758 0.0000 0.0000 0.0000 -5.3291 0.0876 -19.2836 -0.3079 -1.2457 13.9964 -4.6577 0.6958 6.6366 0.0000 0.0000 -0.0000
